# xmcd
#
# Track frame offsets:
#	150
#	27263
#	50329
#	72451
#	90362
#	109679
#	128899
#	148683
#	161710
#	180896
#	194200
#	212604
#	230025
#
# Disc length: 3268 seconds
#
# Revision: 1
# Processed by: cddbd v1.5.2PL0 Copyright (c) Steve Scherf et al.
# Submitted via: audiograbber 1.83.01
#
DISCID=b90cc20d
DTITLE=Kellie Rucker - Blues Is Blues
DYEAR=2009
DGENRE=Blues
TTITLE0=Mississippi Rain
TTITLE1=Wild Wild West
TTITLE2=Blues Is Blues
TTITLE3=Nothin' To Lose
TTITLE4=You're Leavin Me
TTITLE5=In The Meantime
TTITLE6=Life Of Crime
TTITLE7=Love And War
TTITLE8=Church Of Texas
TTITLE9=Talk To Me
TTITLE10=Kiss Me
TTITLE11=Rollin' and Tumblin'
TTITLE12=Had We Not
EXTD=YEAR: 2009
EXTT0=
EXTT1=
EXTT2=
EXTT3=
EXTT4=
EXTT5=
EXTT6=
EXTT7=
EXTT8=
EXTT9=
EXTT10=
EXTT11=
EXTT12=
PLAYORDER=
